Results
version=1
nRows=19
nColumns=24
inDegrees=yes
endheader
time	pelvis_tilt	pelvis_list	pelvis_rotation	pelvis_tx	pelvis_ty	pelvis_tz	hip_flexion_r	hip_adduction_r	hip_rotation_r	knee_angle_r	ankle_angle_r	subtalar_angle_r	mtp_angle_r	hip_flexion_l	hip_adduction_l	hip_rotation_l	knee_angle_l	ankle_angle_l	subtalar_angle_l	mtp_angle_l	lumbar_extension	lumbar_bending	lumbar_rotation
      0.44100000	     -5.63697788	      4.47679619	     -2.29463518	     -0.77677671	      1.05838997	      0.29161151	     29.18450893	     -1.32419540	     -8.50991256	     -5.32704574	      2.74419952	      0.79300338	     -0.02237585	     -3.43410799	      9.53246252	      3.69586677	     -8.37117174	      9.32699582	     -9.68832719	     -0.29853890	      5.12149086	     -1.26027967	      0.53605282
      0.44516667	     -5.61142616	      4.43145648	     -2.41132040	     -0.77091134	      1.05786908	      0.29169639	     29.13045428	     -1.18361426	     -8.22978153	     -5.50981297	      2.79316366	      1.10922911	     -0.02040043	     -3.56803315	      9.51010222	      3.64564575	     -8.84018359	      9.48143835	     -9.85474151	     -0.38769974	      5.10492319	     -1.13609018	      0.39765957
      0.44933333	     -5.58194855	      4.39748117	     -2.42858563	     -0.76512805	      1.05739572	      0.29163034	     29.08439612	     -1.10731881	     -8.08617228	     -5.78651551	      2.80496639	      1.19987183	     -0.01839451	     -3.66245370	      9.49178401	      3.65468405	     -9.39496391	      9.49574364	     -9.86960912	     -0.40894968	      5.15791368	     -1.09581116	      0.37716935
      0.45350000	     -5.57765088	      4.37646409	     -2.61293597	     -0.75923589	      1.05681388	      0.29181170	     29.08057441	     -0.96015923	     -7.62373539	     -6.13628376	      2.93819977	      1.56247269	     -0.00713412	     -3.72079452	      9.49220854	      3.46261477	     -9.95816729	      9.71459064	     -9.81660956	     -0.48289201	      5.09634912	     -0.97880446	      0.28238965
      0.45766667	     -5.49970164	      4.36443257	     -2.79435132	     -0.75335754	      1.05636070	      0.29202758	     29.01645801	     -0.82910370	     -7.24763204	     -6.57164085	      3.09363557	      1.87140157	      0.01258128	     -3.81965224	      9.49809293	      3.17212598	    -10.59355877	      9.90942622	     -9.46325253	     -0.62589249	      5.15489704	     -1.02945791	      0.26760940
      0.46183333	     -5.50106826	      4.31497023	     -2.81565953	     -0.74744433	      1.05589985	      0.29198053	     28.99415726	     -0.73672936	     -6.93481736	     -6.99453501	      3.06680398	      1.97160984	      0.02180287	     -3.80572167	      9.44718539	      3.07928776	    -11.30830320	      9.95638116	     -9.34673562	     -0.67442053	      5.09546613	     -0.86885409	      0.24303746
      0.46600000	     -5.43444461	      4.30559417	     -3.04224688	     -0.74150439	      1.05546076	      0.29231690	     28.93560628	     -0.58148955	     -6.37561181	     -7.48951856	      3.06859354	      2.08635225	      0.04966845	     -3.83653562	      9.44098578	      2.66388949	    -12.04924179	     10.13205333	     -8.85035864	     -0.78445862	      5.16487033	     -0.87302104	      0.27252380
      0.47016667	     -5.42636072	      4.24576806	     -3.03677062	     -0.73554276	      1.05508190	      0.29227070	     28.89307520	     -0.49277880	     -6.06306169	     -7.96965333	      3.00976655	      2.11085175	      0.06272317	     -3.77128821	      9.36138491	      2.51635108	    -12.89109301	     10.13280312	     -8.66690474	     -0.82220623	      5.07619860	     -0.71933907	      0.26736292
      0.47433333	     -5.33216857	      4.18449277	     -3.03261651	     -0.72957561	      1.05487501	      0.29206872	     28.76399164	     -0.42995121	     -5.83648766	     -8.48259662	      2.94995789	      2.14666731	      0.06816261	     -3.78242211	      9.29554033	      2.45277938	    -13.76447958	     10.09263163	     -8.59722403	     -0.83103519	      5.16014200	     -0.63062757	      0.26741781
      0.47850000	     -5.25212402	      4.18801143	     -3.40114518	     -0.72359481	      1.05447727	      0.29284864	     28.69350531	     -0.20051782	     -5.00804761	     -9.03204749	      2.75364449	      2.09405438	      0.11106588	     -3.71980210	      9.26195897	      1.62459346	    -14.67792495	     10.12064349	     -7.52741978	     -0.87891455	      5.09692544	     -0.60707355	      0.30254617
      0.48266667	     -5.23686957	      4.13297802	     -3.44380203	     -0.71762971	      1.05419385	      0.29305329	     28.63734655	     -0.07946665	     -4.59352780	     -9.55046805	      2.58816033	      1.75622456	      0.15648191	     -3.54671519	      9.14301339	      1.21081162	    -15.73525542	     10.20236477	     -6.75725870	     -0.90861406	      5.03826435	     -0.44239332	      0.39266715
      0.48683333	     -5.13711605	      4.03674683	     -3.37408951	     -0.71155859	      1.05415398	      0.29284124	     28.45293987	     -0.01461437	     -4.38324836	    -10.03677596	      2.51342339	      1.79170570	      0.16314378	     -3.46900968	      9.00193846	      1.11125789	    -16.80385535	     10.12235702	     -6.72212589	     -0.91008088	      5.09743243	     -0.36309416	      0.39924252
      0.49100000	     -5.08278018	      4.00796558	     -3.61128099	     -0.70556378	      1.05391260	      0.29343306	     28.37941631	      0.17416524	     -3.79398868	    -10.58718342	      2.16981805	      1.60025855	      0.20518504	     -3.27255001	      8.89149521	      0.36190847	    -17.92468779	      9.78629516	     -5.71328665	     -0.89180822	      4.97268972	     -0.24912713	      0.40635084
      0.49516667	     -5.03913091	      3.88812375	     -3.63556461	     -0.69944242	      1.05384116	      0.29397560	     28.21347805	      0.37927159	     -3.23477135	    -11.00166806	      1.90713047	      1.06591193	      0.27729865	     -3.03588584	      8.62786729	     -0.20894675	    -19.17448727	      9.78596217	     -4.64307047	     -0.82118076	      4.97770166	     -0.21818906	      0.52240908
      0.49933333	     -4.98007226	      3.79298388	     -3.61292102	     -0.69341476	      1.05381370	      0.29390530	     28.09124199	      0.46594588	     -3.11059499	    -11.53524511	      1.78194288	      1.03712411	      0.29383565	     -2.78546626	      8.44680842	     -0.54980556	    -20.45825407	      9.58168550	     -4.48091465	     -0.80256067	      4.86148632	     -0.03781193	      0.50534265
      0.50350000	     -4.88685684	      3.75238317	     -3.73240663	     -0.68749535	      1.05379151	      0.29424550	     27.95254726	      0.58132669	     -2.71092364	    -12.06972526	      1.46830716	      0.79132825	      0.33565485	     -2.52823894	      8.29520338	     -1.09530887	    -21.76392335	      9.01288963	     -3.57742374	     -0.72793128	      4.81910101	      0.09662008	      0.50932914
      0.50766667	     -4.83312709	      3.62481636	     -3.74462722	     -0.68140556	      1.05383796	      0.29477888	     27.77090933	      0.77340953	     -2.26965161	    -12.48525577	      1.18551750	      0.29024955	      0.40482173	     -2.19808000	      7.98771785	     -1.65965513	    -23.18277835	      8.71235905	     -2.61080163	     -0.56755248	      4.83804552	      0.13453250	      0.57614734
      0.51183333	     -4.76876071	      3.50987086	     -3.72087896	     -0.67539012	      1.05391900	      0.29479351	     27.62822835	      0.87374073	     -2.21285296	    -13.00493038	      1.07409091	      0.25132370	      0.42113787	     -1.84402531	      7.73943501	     -2.06689797	    -24.64855575	      8.42107906	     -2.41898652	     -0.52917825	      4.69460379	      0.32077295	      0.55351284
      0.51600000	     -4.66900034	      3.39595450	     -3.75549739	     -0.66940401	      1.05406762	      0.29526907	     27.41419912	      1.03743030	     -1.85274078	    -13.44419701	      0.77333033	     -0.18128882	      0.47954612	     -1.49559464	      7.43882583	     -2.58590783	    -26.13508144	      7.64663425	     -1.38139103	     -0.34460642	      4.71930430	      0.40504615	      0.58461581
